<svg version="1" xmlns="http://www.w3.org/2000/svg" width="682.667" height="682.667" viewBox="0 0 512.000000 512.000000"><path d="M229 54.1c-22.4 2.7-41 8.3-62.5 18.9-23.8 11.7-39.2 22.8-57.6 41.6-16.6 17.1-27.8 33.4-38.4 55.7C56.9 199.1 52 221.6 52 256c0 36.6 5.9 62.1 21.7 92.8 24.3 47.5 66.2 83.5 117.6 101.1 28 9.6 62.8 12.3 96.7 7.5 19.3-2.7 35.2-8 57.5-18.9 45.8-22.5 81.4-61.9 100.4-110.9 12.6-32.8 15.9-70.9 9.5-109.6-3.3-20-14.9-49-27.9-69.9-11.8-19.1-32-41-50.6-55.1-23.5-17.7-56.3-32.2-83.8-37.2-13.2-2.3-50.7-3.4-64.1-1.7zm-61.6 90.5c1 .9 1.6 3.3 1.6 6 0 3.9.2 4.4 2.3 4.4 3.5 0 11.8 3.1 12.4 4.6.5 1.4-2.5 10.1-3.8 11-.4.2-3.6-.5-7.1-1.7-10.1-3.4-17.8-1.2-17.8 5.1 0 3.6 2.2 5.4 14.2 11.4 13.1 6.5 16 10.2 16.6 20.5.3 5.4 0 7.6-1.7 10.8-2.4 4.8-6.7 8.7-11.6 10.4-3.1 1.2-3.5 1.7-3.5 4.9 0 7.2-.7 8-6.5 8s-6.5-.8-6.5-7.6c0-2.9-.3-3.1-5.1-4.2-11.7-2.7-13.6-5-10.4-12.6 1.8-4.2 2.2-4.3 9.3-1.6 12.9 4.9 23.7.2 20.6-8.9-.7-2-3.3-3.8-11.2-7.8-15.4-7.6-19.2-11.9-19.2-21.8 0-9 5-16.3 13.3-19.4 2.4-.9 2.7-1.6 2.7-5.5 0-5.4 1.9-7.6 6.5-7.6 1.8 0 4.1.7 4.9 1.6zm83.4 93.9c.6 6.5.4 6.5-30.9 6.5-23.9 0-28-.2-29.3-1.6-1.8-1.8-2-4.7-.6-7.5 1-1.9 2.2-1.9 30.8-1.7l29.7.3.3 4z"/></svg>